<?xml version="1.0" encoding="UTF-8" standalone="no"?><!DOCTYPE svg PUBLIC "-//W3C//DTD SVG 1.1//EN" "http://www.w3.org/Graphics/SVG/1.1/DTD/svg11.dtd"><svg width="100%" height="100%" viewBox="0 0 800 800" version="1.1" xmlns="http://www.w3.org/2000/svg" xmlns:xlink="http://www.w3.org/1999/xlink" xml:space="preserve" xmlns:serif="http://www.serif.com/" style="fill-rule:evenodd;clip-rule:evenodd;stroke-linecap:round;stroke-linejoin:round;stroke-miterlimit:1.5;"><g><path d="M248.03,225.667c0,14.543 -4.298,27.568 6.942,39.013c8.741,8.901 37.985,16.723 39.612,-2.429c0.941,-11.082 -15.919,-35.594 -24.795,-42.252c-6.325,-4.745 -20.61,2.342 -23.072,8.849" style="fill:#ae8070;"/><path d="M548.92,177.891c-23.035,8.183 -15.872,49.381 14.274,39.044c22.682,-7.776 24.714,-53.05 -6.289,-42.854c-3.96,1.302 -8.934,0.781 -11.782,4.268" style="fill:#ae8070;"/><path d="M380.178,116.9c-14.801,-0 -25.931,19.803 -15.332,31.836c10.846,12.313 34.428,15.248 49.894,13.906c15.004,-1.301 11.191,-23.362 5.018,-31.748c-9.291,-12.621 -26.006,-15.001 -40.597,-15.01" style="fill:#ae8070;"/><path d="M511.185,358.971c-6.453,17.742 -21.947,36.524 -11.141,55.656c11.888,21.048 58.742,37.09 70.092,7.873c9.187,-23.648 -2.602,-49.256 -25.5,-59.076c-11.603,-4.976 -32.816,-13.844 -39.443,1.996" style="fill:#ae8070;"/><path d="M361.553,371.982c-40.264,30.639 29.906,65.271 51.695,41.913c2.976,-3.191 5.171,-7.276 6.41,-11.447c7.869,-26.486 -14.055,-33.938 -36.173,-35.461c-7.353,-0.506 -20.04,-3.36 -25.127,3.616" style="fill:#ae8070;"/><path d="M143.612,375.235c-12.106,12.029 -21.088,20.37 -18.915,39.088c2.041,17.577 28.71,22.544 39.669,10.919c22.662,-24.038 -3.729,-77.559 -31.252,-39.988" style="fill:#ae8070;"/><path d="M260.715,480.953c-4.865,9.435 -9.367,24.719 -3.214,34.627c9.347,15.049 30.007,13.867 36.706,-2.105c4.112,-9.803 3.504,-23.436 -6.075,-30.047c-9.009,-6.217 -27.088,-10.435 -31.188,3.609" style="fill:#ae8070;"/><path d="M703.917,115.82c-7.975,4.713 -15.779,13.65 -15.167,23.597c0.519,8.439 18.679,15.199 25.391,12.722c4.037,-1.489 6.147,-5.48 7.603,-9.251c3.098,-8.024 3.994,-17.356 -1.969,-24.33c-7.198,-8.42 -18.698,-9.934 -21.692,2.416" style="fill:#ae8070;"/><path d="M701.477,271.144c-13.395,-1.034 -28.394,0.187 -38.031,10.792c-13.966,15.368 -9.208,36.986 12.142,39.642c16.706,2.079 30.747,-3.912 35.389,-20.726c2.209,-7.998 4.083,-27.478 -7.295,-30.02" style="fill:#ae8070;"/><path d="M678.707,460.623c-13.525,4.359 -31.832,8.756 -39.14,22.391c-12.357,23.057 13.394,37.654 33.879,30.898c15.653,-5.162 23.08,-18.639 23.106,-34.585c0.019,-11.169 -8.418,-23.995 -21.087,-18.513" style="fill:#ae8070;"/><path d="M435.556,505.35c-10.873,8.742 -20.797,22.176 -17.465,36.804c3.206,14.076 31.1,22.751 42.588,14.811c23.026,-15.917 18.26,-48.468 -11.351,-51.422c-4.319,-0.43 -9.72,-1.253 -13.842,0.63" style="fill:#ae8070;"/><path d="M126.534,546.824c-2,12.857 -2.889,32.073 6.144,42.765c13.798,16.332 37.498,8.42 41.46,-11.258c6.047,-30.031 -40.988,-52.022 -49.201,-20.618" style="fill:#ae8070;"/><path d="M336.343,602.935c-8.244,1.943 -19.484,5.745 -24.466,13.168c-12.082,17.999 16.549,24.41 28.697,21.96c29.834,-6.015 18.517,-39.262 -8.319,-37.422" style="fill:#ae8070;"/><path d="M437.182,608.628c-5.963,7.697 -13.256,16.915 -10.042,27.224c4.542,14.568 37.144,24.325 48.74,14.61c26.398,-22.115 -21.249,-52.087 -41.151,-43.326" style="fill:#ae8070;"/><path d="M632.354,592.364c-11.464,-0.885 -24.102,-0.269 -33.994,6.242c-14.457,9.515 -18.031,31.329 -4.128,43.303c11.329,9.758 28.83,10.238 43.002,9.965c7.112,-0.138 16.659,-0.395 22.704,-4.609c20.959,-14.61 14.32,-42.734 -5.494,-54.594c-8.443,-5.055 -18.545,-3.774 -27.828,-2.875" style="fill:#ae8070;"/><path d="M165.568,662.3c-10.332,4.132 -35.557,10.266 -38.754,23.97c-1.798,7.705 7.097,12.996 12.832,15.822c13.733,6.766 35.215,13.944 50.616,9.763c13.808,-3.749 15.323,-23.134 9.776,-33.516c-5.971,-11.174 -22.257,-17.593 -34.475,-17.181" style="fill:#ae8070;"/><path d="M560.791,707.84c-6.73,2.135 -16.867,5.478 -19.309,12.833c-4.972,14.968 22.886,24.682 33.402,21.969c13.429,-3.464 14.945,-22.777 4.927,-30.351c-11.905,-9.002 -24.504,-5.229 -37.871,-2.884" style="fill:#ae8070;"/><path d="M341.223,698.081c-11.857,2.795 -36.257,17.388 -20.155,31.573c10.084,8.883 32.459,12.722 45.416,10.906c17.25,-2.418 19.498,-22.911 8.837,-34.341c-8.955,-9.602 -29.182,-10.936 -41.431,-10.283" style="fill:#ae8070;"/><path d="M45.099,449.971c-10.338,20.049 20.487,39.896 33.516,23.212c15.453,-19.788 -16.321,-40.473 -32.401,-25.848" style="fill:#ae8070;"/><path d="M81.338,73.707c-6.392,3.778 -15.981,9.477 -17.733,17.429c-2.504,11.368 18.412,17.485 26.206,15.214c23.416,-6.822 9.248,-31.627 -12.573,-33.455" style="fill:#ae8070;"/><path d="M513.969,41.178c-6.362,2.347 -13.311,6.208 -15.781,12.942c-3.946,10.76 9.425,18.055 18.364,16.374c24.029,-4.518 15.299,-30.075 -5.84,-30.668" style="fill:#ae8070;"/><path d="M269.191,48.497c-6.737,4.365 -18.413,10.795 -19.497,19.657c-2.059,16.837 28.981,21.616 40.065,15.651c23.213,-12.492 2.223,-47.419 -23.831,-35.978" style="fill:#ae8070;"/><path d="M267.69,334.485c-14.262,17.161 -2.306,48.958 8.558,44.694c21.769,-8.544 14.948,-43.656 -7.247,-45.961" style="fill:#ae8070;"/><path d="M183.459,127.205c-2.315,8.077 -8.84,15.315 -5.609,24.112c6.371,17.344 27.73,7.361 32.774,-5.339c7.288,-18.348 -13.786,-31.151 -28.525,-19.22" style="fill:#ae8070;"/><path d="M128.161,230.483c-7.75,6.834 -17.997,20.822 -12.798,31.695c5.314,11.113 30.744,19.673 40.018,10.139c6.794,-6.986 11.841,-26.219 5.302,-34.717c-8.027,-10.433 -30.596,-14.876 -39.083,-2.884" style="fill:#ae8070;"/><path d="M405.467,234.549c-4.277,7.237 -8.551,18.059 -5.529,26.525c4.626,12.955 24.827,16.657 33.802,6.597c3.393,-3.803 5.756,-8.303 7.158,-13.199c1.586,-5.54 2.847,-12.096 0.284,-17.528c-9.674,-20.503 -47.276,-14.265 -41.244,10.886" style="fill:#ae8070;"/></g><g><path d="M248.03,225.667c0,14.543 -4.298,27.568 6.942,39.013c8.741,8.901 37.985,16.723 39.612,-2.429c0.941,-11.082 -15.919,-35.594 -24.795,-42.252c-6.325,-4.745 -20.61,2.342 -23.072,8.849" style="fill:none;stroke:#795042;stroke-width:8.69px;"/><path d="M548.92,177.891c-23.035,8.183 -15.872,49.381 14.274,39.044c22.682,-7.776 24.714,-53.05 -6.289,-42.854c-3.96,1.302 -8.934,0.781 -11.782,4.268" style="fill:none;stroke:#795042;stroke-width:8.69px;"/><path d="M380.178,116.9c-14.801,-0 -25.931,19.803 -15.332,31.836c10.846,12.313 34.428,15.248 49.894,13.906c15.004,-1.301 11.191,-23.362 5.018,-31.748c-9.291,-12.621 -26.006,-15.001 -40.597,-15.01" style="fill:none;stroke:#795042;stroke-width:8.69px;"/><path d="M511.185,358.971c-6.453,17.742 -21.947,36.524 -11.141,55.656c11.888,21.048 58.742,37.09 70.092,7.873c9.187,-23.648 -2.602,-49.256 -25.5,-59.076c-11.603,-4.976 -32.816,-13.844 -39.443,1.996" style="fill:none;stroke:#795042;stroke-width:8.69px;"/><path d="M361.553,371.982c-40.264,30.639 29.906,65.271 51.695,41.913c2.976,-3.191 5.171,-7.276 6.41,-11.447c7.869,-26.486 -14.055,-33.938 -36.173,-35.461c-7.353,-0.506 -20.04,-3.36 -25.127,3.616" style="fill:none;stroke:#795042;stroke-width:8.69px;"/><path d="M143.612,375.235c-12.106,12.029 -21.088,20.37 -18.915,39.088c2.041,17.577 28.71,22.544 39.669,10.919c22.662,-24.038 -3.729,-77.559 -31.252,-39.988" style="fill:none;stroke:#795042;stroke-width:8.69px;"/><path d="M260.715,480.953c-4.865,9.435 -9.367,24.719 -3.214,34.627c9.347,15.049 30.007,13.867 36.706,-2.105c4.112,-9.803 3.504,-23.436 -6.075,-30.047c-9.009,-6.217 -27.088,-10.435 -31.188,3.609" style="fill:none;stroke:#795042;stroke-width:8.69px;"/><path d="M703.917,115.82c-7.975,4.713 -15.779,13.65 -15.167,23.597c0.519,8.439 18.679,15.199 25.391,12.722c4.037,-1.489 6.147,-5.48 7.603,-9.251c3.098,-8.024 3.994,-17.356 -1.969,-24.33c-7.198,-8.42 -18.698,-9.934 -21.692,2.416" style="fill:none;stroke:#795042;stroke-width:8.69px;"/><path d="M701.477,271.144c-13.395,-1.034 -28.394,0.187 -38.031,10.792c-13.966,15.368 -9.208,36.986 12.142,39.642c16.706,2.079 30.747,-3.912 35.389,-20.726c2.209,-7.998 4.083,-27.478 -7.295,-30.02" style="fill:none;stroke:#795042;stroke-width:8.69px;"/><path d="M678.707,460.623c-13.525,4.359 -31.832,8.756 -39.14,22.391c-12.357,23.057 13.394,37.654 33.879,30.898c15.653,-5.162 23.08,-18.639 23.106,-34.585c0.019,-11.169 -8.418,-23.995 -21.087,-18.513" style="fill:none;stroke:#795042;stroke-width:8.69px;"/><path d="M435.556,505.35c-10.873,8.742 -20.797,22.176 -17.465,36.804c3.206,14.076 31.1,22.751 42.588,14.811c23.026,-15.917 18.26,-48.468 -11.351,-51.422c-4.319,-0.43 -9.72,-1.253 -13.842,0.63" style="fill:none;stroke:#795042;stroke-width:8.69px;"/><path d="M126.534,546.824c-2,12.857 -2.889,32.073 6.144,42.765c13.798,16.332 37.498,8.42 41.46,-11.258c6.047,-30.031 -40.988,-52.022 -49.201,-20.618" style="fill:none;stroke:#795042;stroke-width:8.69px;"/><path d="M336.343,602.935c-8.244,1.943 -19.484,5.745 -24.466,13.168c-12.082,17.999 16.549,24.41 28.697,21.96c29.834,-6.015 18.517,-39.262 -8.319,-37.422" style="fill:none;stroke:#795042;stroke-width:8.69px;"/><path d="M437.182,608.628c-5.963,7.697 -13.256,16.915 -10.042,27.224c4.542,14.568 37.144,24.325 48.74,14.61c26.398,-22.115 -21.249,-52.087 -41.151,-43.326" style="fill:none;stroke:#795042;stroke-width:8.69px;"/><path d="M632.354,592.364c-11.464,-0.885 -24.102,-0.269 -33.994,6.242c-14.457,9.515 -18.031,31.329 -4.128,43.303c11.329,9.758 28.83,10.238 43.002,9.965c7.112,-0.138 16.659,-0.395 22.704,-4.609c20.959,-14.61 14.32,-42.734 -5.494,-54.594c-8.443,-5.055 -18.545,-3.774 -27.828,-2.875" style="fill:none;stroke:#795042;stroke-width:8.69px;"/><path d="M165.568,662.3c-10.332,4.132 -35.557,10.266 -38.754,23.97c-1.798,7.705 7.097,12.996 12.832,15.822c13.733,6.766 35.215,13.944 50.616,9.763c13.808,-3.749 15.323,-23.134 9.776,-33.516c-5.971,-11.174 -22.257,-17.593 -34.475,-17.181" style="fill:none;stroke:#795042;stroke-width:8.69px;"/><path d="M560.791,707.84c-6.73,2.135 -16.867,5.478 -19.309,12.833c-4.972,14.968 22.886,24.682 33.402,21.969c13.429,-3.464 14.945,-22.777 4.927,-30.351c-11.905,-9.002 -24.504,-5.229 -37.871,-2.884" style="fill:none;stroke:#795042;stroke-width:8.69px;"/><path d="M341.223,698.081c-11.857,2.795 -36.257,17.388 -20.155,31.573c10.084,8.883 32.459,12.722 45.416,10.906c17.25,-2.418 19.498,-22.911 8.837,-34.341c-8.955,-9.602 -29.182,-10.936 -41.431,-10.283" style="fill:none;stroke:#795042;stroke-width:8.69px;"/><path d="M45.099,449.971c-10.338,20.049 20.487,39.896 33.516,23.212c15.453,-19.788 -16.321,-40.473 -32.401,-25.848" style="fill:none;stroke:#795042;stroke-width:8.69px;"/><path d="M81.338,73.707c-6.392,3.778 -15.981,9.477 -17.733,17.429c-2.504,11.368 18.412,17.485 26.206,15.214c23.416,-6.822 9.248,-31.627 -12.573,-33.455" style="fill:none;stroke:#795042;stroke-width:8.69px;"/><path d="M513.969,41.178c-6.362,2.347 -13.311,6.208 -15.781,12.942c-3.946,10.76 9.425,18.055 18.364,16.374c24.029,-4.518 15.299,-30.075 -5.84,-30.668" style="fill:none;stroke:#795042;stroke-width:8.69px;"/><path d="M269.191,48.497c-6.737,4.365 -18.413,10.795 -19.497,19.657c-2.059,16.837 28.981,21.616 40.065,15.651c23.213,-12.492 2.223,-47.419 -23.831,-35.978" style="fill:none;stroke:#795042;stroke-width:8.69px;"/><path d="M267.69,334.485c-14.262,17.161 -2.306,48.958 8.558,44.694c21.769,-8.544 14.948,-43.656 -7.247,-45.961" style="fill:none;stroke:#795042;stroke-width:8.69px;"/><path d="M183.459,127.205c-2.315,8.077 -8.84,15.315 -5.609,24.112c6.371,17.344 27.73,7.361 32.774,-5.339c7.288,-18.348 -13.786,-31.151 -28.525,-19.22" style="fill:none;stroke:#795042;stroke-width:8.69px;"/><path d="M128.161,230.483c-7.75,6.834 -17.997,20.822 -12.798,31.695c5.314,11.113 30.744,19.673 40.018,10.139c6.794,-6.986 11.841,-26.219 5.302,-34.717c-8.027,-10.433 -30.596,-14.876 -39.083,-2.884" style="fill:none;stroke:#795042;stroke-width:8.69px;"/><path d="M405.467,234.549c-4.277,7.237 -8.551,18.059 -5.529,26.525c4.626,12.955 24.827,16.657 33.802,6.597c3.393,-3.803 5.756,-8.303 7.158,-13.199c1.586,-5.54 2.847,-12.096 0.284,-17.528c-9.674,-20.503 -47.276,-14.265 -41.244,10.886" style="fill:none;stroke:#795042;stroke-width:8.69px;"/></g><path d="M519.891,378.639c-4.341,13.681 2.063,25.567 8.873,37.131" style="fill:none;stroke:#935b35;stroke-width:8.69px;"/><path d="M543.474,384.332c11.774,11.7 16.959,21.925 8.621,37.723" style="fill:none;stroke:#935b35;stroke-width:8.69px;"/><path d="M371.886,386.772c-10.766,16.616 14.414,25.795 26.998,19.703" style="fill:none;stroke:#935b35;stroke-width:8.69px;"/><path d="M382.457,128.983c-6.722,13.037 16.747,15.906 23.228,19.582" style="fill:none;stroke:#935b35;stroke-width:8.69px;"/><path d="M558.925,186.721c5.115,6.36 4.062,8.894 -1.617,13.887" style="fill:none;stroke:#935b35;stroke-width:8.69px;"/><path d="M274.3,60.673c-0.575,3.153 1.732,5.515 4.355,6.88" style="fill:none;stroke:#935b35;stroke-width:8.69px;"/><path d="M684.16,290.812c15.422,6.471 -0.44,15.555 -9.77,15.107" style="fill:none;stroke:#935b35;stroke-width:8.69px;"/><path d="M658.95,481.918c8.186,-3.435 24.911,-0.396 17.117,11.902c-3.669,5.79 -11.605,7.283 -17.932,7.414" style="fill:none;stroke:#935b35;stroke-width:8.69px;"/><path d="M660.577,629.11c-9.446,-16.465 -31.571,-22.925 -49.679,-20.705" style="fill:none;stroke:#935b35;stroke-width:8.69px;"/><path d="M651.631,637.242c-14.439,1.114 -29.934,-1.071 -42.72,-8.24" style="fill:none;stroke:#935b35;stroke-width:8.69px;"/><path d="M193.792,136.302c0.489,1.408 0.301,2.775 0.051,4.211" style="fill:none;stroke:#935b35;stroke-width:8.69px;"/><path d="M80.755,88.322c-0.502,2.131 -1.17,4.434 -0.8,6.64" style="fill:none;stroke:#935b35;stroke-width:8.69px;"/><path d="M259.662,233.887c-2.099,13.498 7.072,19.217 16.658,26.583" style="fill:none;stroke:#935b35;stroke-width:8.69px;"/><path d="M416.612,238.767c6.361,2.313 9.474,9.663 7.272,15.992" style="fill:none;stroke:#935b35;stroke-width:8.69px;"/><path d="M137.68,238.767c-6.014,4.659 -5.839,12.291 -1.352,17.699" style="fill:none;stroke:#935b35;stroke-width:8.69px;"/><path d="M136.053,404.662c1.592,-10.229 20.494,-21.474 26.316,-8.613c2.153,4.755 -1.631,11.064 -3.052,15.57" style="fill:none;stroke:#935b35;stroke-width:8.69px;"/><path d="M440.196,517.699c-14.988,8.858 -2.122,28.674 11.429,29.972" style="fill:none;stroke:#935b35;stroke-width:8.69px;"/><path d="M444.262,638.055c-5.437,-14.95 17.606,-16.502 24.958,-6.927" style="fill:none;stroke:#935b35;stroke-width:8.69px;"/><path d="M334.478,616.911c-10.37,2.973 -0.62,11.544 6.013,9.8" style="fill:none;stroke:#935b35;stroke-width:8.69px;"/><path d="M270.234,509.567c-2.887,-9.1 5.447,-18.103 12.399,-9.888" style="fill:none;stroke:#935b35;stroke-width:8.69px;"/><path d="M138.493,554.294c-4.957,15.624 4.282,28.858 21.198,27.056" style="fill:none;stroke:#935b35;stroke-width:8.69px;"/><path d="M163.703,698.233c-15.53,-3.66 -16.332,-14.768 -0.585,-18.233" style="fill:none;stroke:#935b35;stroke-width:8.69px;"/><path d="M179.154,677.089c3.359,8.006 6.775,15.723 2.252,23.972" style="fill:none;stroke:#935b35;stroke-width:8.69px;"/><path d="M351.555,710.431c-7.086,-0.547 -9.472,2.437 -14.158,7.01" style="fill:none;stroke:#935b35;stroke-width:8.69px;"/><path d="M562.991,726.695c1.789,-1.159 2.95,-0.656 4.758,0.485" style="fill:none;stroke:#935b35;stroke-width:8.69px;"/><path d="M364.567,718.563c1.575,6.687 -4.723,8.758 -10.592,9.134" style="fill:none;stroke:#935b35;stroke-width:8.69px;"/></svg>