<?xml version="1.0" encoding="UTF-8" standalone="no"?><!DOCTYPE svg PUBLIC "-//W3C//DTD SVG 1.1//EN" "http://www.w3.org/Graphics/SVG/1.1/DTD/svg11.dtd"><svg width="100%" height="100%" viewBox="0 0 800 800" version="1.1" xmlns="http://www.w3.org/2000/svg" xmlns:xlink="http://www.w3.org/1999/xlink" xml:space="preserve" xmlns:serif="http://www.serif.com/" style="fill-rule:evenodd;clip-rule:evenodd;stroke-linecap:round;stroke-linejoin:round;stroke-miterlimit:1.5;"><path d="M528.037,343.153c0,-8.526 4.378,-16.161 -7.071,-22.871c-8.904,-5.218 -38.694,-9.803 -40.351,1.424c-0.959,6.497 16.216,20.866 25.258,24.77c6.443,2.781 20.994,-1.373 23.502,-5.188" style="fill:#85675c;"/><path d="M367.617,613.801c0,-8.526 4.378,-16.162 -7.071,-22.871c-8.904,-5.218 -38.694,-9.803 -40.351,1.424c-0.959,6.497 16.217,20.866 25.258,24.77c6.443,2.781 20.994,-1.373 23.502,-5.188" style="fill:#85675c;"/><path d="M195.319,358.067c21.806,-9.903 9.314,-31.822 -19.274,-19.076c-21.508,9.591 -17.616,35.925 11.842,23.065c3.762,-1.643 8.769,-2.474 11.142,-5.113" style="fill:#85675c;"/><path d="M393.425,406.914c15.076,0 26.414,-11.609 15.618,-18.663c-11.049,-7.218 -35.071,-8.938 -50.825,-8.152c-15.284,0.763 -11.4,13.695 -5.112,18.611c9.465,7.399 26.491,8.795 41.354,8.799" style="fill:#85675c;"/><path d="M259.974,265.007c6.573,-10.401 22.356,-21.411 11.348,-32.627c-12.109,-12.338 -59.837,-21.743 -71.399,-4.615c-9.358,13.863 2.65,28.875 25.976,34.632c11.819,2.917 33.428,8.115 40.179,-1.17" style="fill:#85675c;"/><path d="M113.038,545.598c4.092,-11.604 17.026,-25.853 3.797,-34.335c-14.554,-9.332 -63.177,-7.87 -70.634,11.403c-6.036,15.599 9.015,27.559 33.037,27.976c12.172,0.212 34.395,0.467 38.909,-10.089" style="fill:#85675c;"/><path d="M412.397,257.38c41.015,-17.962 -30.464,-38.263 -52.66,-24.57c-3.031,1.87 -5.267,4.265 -6.529,6.71c-8.015,15.527 14.317,19.895 36.848,20.788c7.489,0.297 20.413,1.97 25.596,-2.12" style="fill:#85675c;"/><path d="M337.856,703.088c20.519,-39.797 -47.768,-10.502 -56.368,14.119c-1.175,3.363 -1.401,6.632 -0.84,9.325c3.565,17.106 23.656,6.421 41.71,-7.088c6.001,-4.491 17.089,-11.338 18.534,-17.78" style="fill:#85675c;"/><path d="M357.553,783.376c41.015,-17.961 -30.464,-38.263 -52.66,-24.57c-3.031,1.87 -5.267,4.265 -6.529,6.71c-8.016,15.527 14.317,19.895 36.848,20.788c7.489,0.297 20.413,1.97 25.596,-2.12" style="fill:#85675c;"/><path d="M259.934,504.214c35.984,-26.645 -38.221,-30.517 -56.809,-12.224c-2.539,2.498 -4.185,5.331 -4.871,7.996c-4.356,16.921 18.388,16.207 40.552,12.059c7.368,-1.379 20.34,-2.626 24.481,-7.768" style="fill:#85675c;"/><path d="M634.404,255.473c12.331,-7.052 21.481,-11.942 19.267,-22.914c-2.078,-10.304 -29.245,-13.216 -40.409,-6.401c-23.085,14.091 3.799,45.467 31.835,23.442" style="fill:#85675c;"/><path d="M579.56,781.469c12.331,-7.052 21.481,-11.942 19.267,-22.914c-2.079,-10.304 -29.245,-13.216 -40.409,-6.401c-23.085,14.091 3.799,45.467 31.835,23.442" style="fill:#85675c;"/><path d="M56.053,639.156c12.331,-7.051 21.481,-11.941 19.267,-22.914c-2.079,-10.303 -29.245,-13.215 -40.409,-6.401c-23.085,14.092 3.799,45.467 31.835,23.442" style="fill:#85675c;"/><path d="M708.046,677.328c12.332,-7.052 21.482,-11.942 19.268,-22.914c-2.079,-10.304 -29.246,-13.216 -40.41,-6.401c-23.084,14.091 3.799,45.467 31.836,23.442" style="fill:#85675c;"/><path d="M453.575,569.323c12.331,-7.052 21.481,-11.942 19.267,-22.914c-2.078,-10.304 -29.245,-13.216 -40.409,-6.401c-23.085,14.091 3.799,45.467 31.835,23.442" style="fill:#85675c;"/><path d="M515.116,193.499c4.956,-5.531 9.542,-14.491 3.274,-20.299c-9.521,-8.822 -30.566,-8.129 -37.391,1.234c-4.189,5.746 -3.569,13.739 6.188,17.614c9.178,3.645 27.594,6.117 31.771,-2.115" style="fill:#85675c;"/><path d="M460.272,719.495c4.956,-5.531 9.541,-14.491 3.273,-20.299c-9.52,-8.822 -30.566,-8.129 -37.39,1.234c-4.189,5.746 -3.569,13.739 6.188,17.614c9.178,3.645 27.594,6.118 31.77,-2.115" style="fill:#85675c;"/><path d="M354.696,464.147c4.956,-5.531 9.542,-14.491 3.274,-20.299c-9.521,-8.822 -30.566,-8.129 -37.391,1.234c-4.189,5.746 -3.569,13.739 6.188,17.614c9.178,3.645 27.594,6.117 31.771,-2.115" style="fill:#85675c;"/><path d="M49.501,428.705c7.304,-4.503 13.886,-11.381 11.98,-16.927c-1.617,-4.705 -20.533,-4.448 -26.875,-1.51c-3.815,1.767 -5.39,4.526 -6.344,7.012c-2.029,5.288 -1.699,10.825 5.133,13.458c8.247,3.179 19.865,1.435 21.225,-6.302" style="fill:#85675c;"/><path d="M66.132,316.493c13.645,0.606 28.924,-0.11 38.74,-6.326c14.227,-9.01 9.38,-21.682 -12.368,-23.24c-17.018,-1.218 -31.321,2.294 -36.05,12.151c-2.249,4.688 -4.158,16.108 7.432,17.598" style="fill:#85675c;"/><path d="M561.595,559.417c12.385,5.758 26.785,10.916 38.229,8.908c16.586,-2.911 16.932,-16.475 -2.583,-26.199c-15.27,-7.609 -29.833,-9.81 -37.96,-2.498c-3.866,3.478 -9.981,13.309 0.168,19.102" style="fill:#85675c;"/><path d="M89.327,205.417c13.777,-2.555 32.426,-5.133 39.869,-13.126c12.588,-13.517 -13.643,-22.074 -34.51,-18.113c-15.945,3.026 -23.511,10.926 -23.538,20.274c-0.019,6.548 8.576,14.066 21.481,10.853" style="fill:#85675c;"/><path d="M625.353,465.551c13.712,2.885 31.937,7.606 41.864,3.051c16.787,-7.703 -4.207,-25.607 -25.009,-29.894c-15.895,-3.276 -25.9,1.147 -29.486,9.78c-2.511,6.047 2.571,16.272 15.727,18.217" style="fill:#85675c;"/><path d="M337.014,179.197c11.075,-5.125 21.184,-13 17.791,-21.575c-3.266,-8.252 -31.681,-13.337 -43.383,-8.683c-23.456,9.331 -18.601,28.413 11.562,30.145c4.4,0.252 9.902,0.734 14.1,-0.37" style="fill:#85675c;"/><path d="M230.053,689.91c5.367,-10.96 8.252,-23.446 0.211,-27.964c-7.736,-4.347 -33.001,9.616 -39.151,20.606c-12.328,22.028 3.469,33.782 27.977,16.113c3.575,-2.577 8.15,-5.671 10.713,-9.174" style="fill:#85675c;"/><path d="M169.031,444.785c9.656,-7.463 17.757,-17.392 12.539,-24.996c-5.022,-7.317 -33.855,-5.946 -44.227,1.198c-20.789,14.32 -11.806,31.842 17.986,26.812c4.345,-0.734 9.817,-1.49 13.664,-3.501" style="fill:#85675c;"/><path d="M651.8,154.884c2.037,-7.537 2.943,-18.802 -6.259,-25.07c-14.055,-9.574 -38.197,-4.936 -42.233,6.6c-6.16,17.605 41.753,30.496 50.119,12.087" style="fill:#85675c;"/><path d="M67.341,718.276c2.615,7.357 8.283,17.134 19.416,17.05c17.006,-0.13 34.215,-17.685 30.967,-29.467c-4.957,-17.981 -51.688,-1.306 -48.087,18.592" style="fill:#85675c;"/><path d="M596.956,680.88c2.037,-7.537 2.942,-18.802 -6.259,-25.07c-14.055,-9.574 -38.197,-4.936 -42.233,6.6c-6.16,17.605 41.752,30.496 50.118,12.087" style="fill:#85675c;"/><path d="M725.442,576.739c2.038,-7.537 2.943,-18.802 -6.259,-25.07c-14.055,-9.574 -38.197,-4.936 -42.233,6.6c-6.16,17.605 41.753,30.496 50.119,12.087" style="fill:#85675c;"/><path d="M438.077,121.99c8.398,-1.138 19.847,-3.367 24.923,-7.718c12.307,-10.552 -16.858,-14.31 -29.233,-12.874c-30.391,3.526 -18.863,23.016 8.475,21.937" style="fill:#85675c;"/><path d="M383.232,647.987c8.399,-1.139 19.848,-3.368 24.924,-7.719c12.307,-10.552 -16.858,-14.31 -29.233,-12.874c-30.391,3.526 -18.863,23.016 8.475,21.937" style="fill:#85675c;"/><path d="M335.357,118.653c6.075,-4.512 13.503,-9.916 10.229,-15.959c-4.626,-8.54 -37.836,-14.26 -49.649,-8.564c-26.891,12.964 21.645,30.534 41.919,25.398" style="fill:#85675c;"/><path d="M190.604,643.953c1.871,-7.333 4.232,-16.21 -2.118,-18.838c-8.975,-3.713 -38.363,12.78 -43.943,24.647c-12.704,27.015 36.051,10.061 48.552,-6.706" style="fill:#85675c;"/><path d="M136.545,128.188c11.677,0.518 24.551,0.157 34.628,-3.659c14.727,-5.578 18.366,-18.366 4.204,-25.386c-11.54,-5.72 -29.367,-6.002 -43.804,-5.841c-7.244,0.081 -16.97,0.231 -23.128,2.702c-21.349,8.565 -14.587,25.051 5.597,32.004c8.601,2.963 18.891,2.212 28.348,1.685" style="fill:#85675c;"/><path d="M612.037,87.19c10.525,-2.423 36.221,-6.018 39.478,-14.052c1.832,-4.517 -7.23,-7.619 -13.071,-9.275c-13.989,-3.966 -35.872,-8.175 -51.56,-5.723c-14.066,2.198 -15.609,13.561 -9.959,19.647c6.082,6.551 22.672,10.314 35.118,10.072" style="fill:#85675c;"/><path d="M138.567,751.299c-7.275,7.983 -26.355,25.566 -24.459,34.025c1.065,4.756 10.281,2.148 16.026,0.185c13.76,-4.702 34.147,-13.698 45.65,-24.644c10.313,-9.814 5.113,-20.035 -2.997,-21.822c-8.729,-1.924 -24.511,4.426 -34.606,11.709" style="fill:#85675c;"/><path d="M209.442,60.493c6.855,-1.251 17.182,-3.211 19.67,-7.522c5.064,-8.775 -23.314,-14.469 -34.026,-12.879c-13.679,2.03 -15.223,13.352 -5.019,17.792c12.128,5.277 24.961,3.065 38.578,1.691" style="fill:#85675c;"/><path d="M433.106,66.214c12.078,-1.638 36.933,-10.193 20.531,-18.508c-10.272,-5.208 -33.064,-7.458 -46.263,-6.394c-17.572,1.417 -19.861,13.431 -9.002,20.132c9.122,5.629 29.727,6.41 42.204,6.028" style="fill:#85675c;"/><path d="M734.754,211.661c10.531,-11.753 -20.869,-23.388 -34.141,-13.607c-15.741,11.6 16.625,23.726 33.005,15.152" style="fill:#85675c;"/><path d="M679.909,737.657c10.532,-11.753 -20.869,-23.387 -34.14,-13.607c-15.741,11.6 16.625,23.726 33.005,15.152" style="fill:#85675c;"/><path d="M156.403,595.345c10.531,-11.754 -20.869,-23.388 -34.141,-13.607c-15.741,11.6 16.625,23.726 33.005,15.152" style="fill:#85675c;"/><path d="M658.46,620.147c10.531,-11.754 -20.869,-23.388 -34.141,-13.607c-15.741,11.6 16.625,23.726 33.005,15.152" style="fill:#85675c;"/><path d="M574.334,482.309c10.531,-11.753 -20.869,-23.388 -34.141,-13.607c-15.741,11.6 16.625,23.726 33.005,15.152" style="fill:#85675c;"/><path d="M697.839,432.235c6.511,-2.215 16.279,-5.556 18.064,-10.218c2.551,-6.664 -18.755,-10.25 -26.695,-8.918c-23.852,3.999 -9.42,18.54 12.807,19.612" style="fill:#85675c;"/><path d="M506.482,447.013c6.862,-2.559 18.757,-6.328 19.861,-11.523c2.097,-9.871 -29.522,-12.672 -40.813,-9.175c-23.645,7.323 -2.264,27.798 24.276,21.091" style="fill:#85675c;"/><path d="M508.011,279.361c14.528,-10.06 2.349,-28.7 -8.718,-26.2c-22.175,5.009 -15.226,25.592 7.382,26.943" style="fill:#85675c;"/><path d="M347.591,550.009c14.528,-10.06 2.349,-28.7 -8.718,-26.2c-22.175,5.009 -15.226,25.592 7.382,26.943" style="fill:#85675c;"/><path d="M593.813,400.873c2.358,-4.735 9.005,-8.978 5.714,-14.135c-6.49,-10.167 -28.248,-4.315 -33.386,3.13c-7.423,10.756 14.043,18.261 29.058,11.267" style="fill:#85675c;"/><path d="M650.143,340.329c7.895,-4.006 18.332,-12.206 13.036,-18.58c-5.413,-6.515 -31.318,-11.532 -40.764,-5.943c-6.921,4.095 -12.062,15.369 -5.401,20.351c8.177,6.116 31.167,8.721 39.812,1.691" style="fill:#85675c;"/><path d="M367.664,337.946c4.357,-4.243 8.71,-10.587 5.631,-15.549c-4.712,-7.595 -25.289,-9.765 -34.431,-3.868c-3.457,2.23 -5.864,4.868 -7.292,7.738c-1.616,3.248 -2.9,7.091 -0.29,10.275c9.855,12.019 48.158,8.363 42.014,-6.381" style="fill:#85675c;"/><path d="M234.268,592.72c3.303,-5.107 6.134,-12.261 2.027,-16.413c-6.285,-6.355 -26.829,-3.887 -34.428,3.898c-2.874,2.943 -4.633,6.051 -5.386,9.167c-0.852,3.526 -1.247,7.559 2.007,10.081c12.284,9.523 48.81,-2.572 39.537,-15.578" style="fill:#85675c;"/><path d="M528.037,343.153c0,-8.526 4.378,-16.161 -7.071,-22.871c-8.904,-5.218 -38.694,-9.803 -40.351,1.424c-0.959,6.497 16.216,20.866 25.258,24.77c6.443,2.781 20.994,-1.373 23.502,-5.188" style="fill:none;stroke:#795041;stroke-width:8.69px;"/><path d="M367.617,613.801c0,-8.526 4.378,-16.162 -7.071,-22.871c-8.904,-5.218 -38.694,-9.803 -40.351,1.424c-0.959,6.497 16.217,20.866 25.258,24.77c6.443,2.781 20.994,-1.373 23.502,-5.188" style="fill:none;stroke:#795041;stroke-width:8.69px;"/><path d="M195.319,358.067c21.806,-9.903 9.314,-31.822 -19.274,-19.076c-21.508,9.591 -17.616,35.925 11.842,23.065c3.762,-1.643 8.769,-2.474 11.142,-5.113" style="fill:none;stroke:#795041;stroke-width:8.69px;"/><path d="M393.425,406.914c15.076,0 26.414,-11.609 15.618,-18.663c-11.049,-7.218 -35.071,-8.938 -50.825,-8.152c-15.284,0.763 -11.4,13.695 -5.112,18.611c9.465,7.399 26.491,8.795 41.354,8.799" style="fill:none;stroke:#795041;stroke-width:8.69px;"/><path d="M259.974,265.007c6.573,-10.401 22.356,-21.411 11.348,-32.627c-12.109,-12.338 -59.837,-21.743 -71.399,-4.615c-9.358,13.863 2.65,28.875 25.976,34.632c11.819,2.917 33.428,8.115 40.179,-1.17" style="fill:none;stroke:#795041;stroke-width:8.69px;"/><path d="M113.038,545.598c4.092,-11.604 17.026,-25.853 3.797,-34.335c-14.554,-9.332 -63.177,-7.87 -70.634,11.403c-6.036,15.599 9.015,27.559 33.037,27.976c12.172,0.212 34.395,0.467 38.909,-10.089" style="fill:none;stroke:#795041;stroke-width:8.69px;"/><path d="M412.397,257.38c41.015,-17.962 -30.464,-38.263 -52.66,-24.57c-3.031,1.87 -5.267,4.265 -6.529,6.71c-8.015,15.527 14.317,19.895 36.848,20.788c7.489,0.297 20.413,1.97 25.596,-2.12" style="fill:none;stroke:#795041;stroke-width:8.69px;"/><path d="M337.856,703.088c20.519,-39.797 -47.768,-10.502 -56.368,14.119c-1.175,3.363 -1.401,6.632 -0.84,9.325c3.565,17.106 23.656,6.421 41.71,-7.088c6.001,-4.491 17.089,-11.338 18.534,-17.78" style="fill:none;stroke:#795041;stroke-width:8.69px;"/><path d="M357.553,783.376c41.015,-17.961 -30.464,-38.263 -52.66,-24.57c-3.031,1.87 -5.267,4.265 -6.529,6.71c-8.016,15.527 14.317,19.895 36.848,20.788c7.489,0.297 20.413,1.97 25.596,-2.12" style="fill:none;stroke:#795041;stroke-width:8.69px;"/><path d="M259.934,504.214c35.984,-26.645 -38.221,-30.517 -56.809,-12.224c-2.539,2.498 -4.185,5.331 -4.871,7.996c-4.356,16.921 18.388,16.207 40.552,12.059c7.368,-1.379 20.34,-2.626 24.481,-7.768" style="fill:none;stroke:#795041;stroke-width:8.69px;"/><path d="M634.404,255.473c12.331,-7.052 21.481,-11.942 19.267,-22.914c-2.078,-10.304 -29.245,-13.216 -40.409,-6.401c-23.085,14.091 3.799,45.467 31.835,23.442" style="fill:none;stroke:#795041;stroke-width:8.69px;"/><path d="M579.56,781.469c12.331,-7.052 21.481,-11.942 19.267,-22.914c-2.079,-10.304 -29.245,-13.216 -40.409,-6.401c-23.085,14.091 3.799,45.467 31.835,23.442" style="fill:none;stroke:#795041;stroke-width:8.69px;"/><path d="M56.053,639.156c12.331,-7.051 21.481,-11.941 19.267,-22.914c-2.079,-10.303 -29.245,-13.215 -40.409,-6.401c-23.085,14.092 3.799,45.467 31.835,23.442" style="fill:none;stroke:#795041;stroke-width:8.69px;"/><path d="M708.046,677.328c12.332,-7.052 21.482,-11.942 19.268,-22.914c-2.079,-10.304 -29.246,-13.216 -40.41,-6.401c-23.084,14.091 3.799,45.467 31.836,23.442" style="fill:none;stroke:#795041;stroke-width:8.69px;"/><path d="M453.575,569.323c12.331,-7.052 21.481,-11.942 19.267,-22.914c-2.078,-10.304 -29.245,-13.216 -40.409,-6.401c-23.085,14.091 3.799,45.467 31.835,23.442" style="fill:none;stroke:#795041;stroke-width:8.69px;"/><path d="M515.116,193.499c4.956,-5.531 9.542,-14.491 3.274,-20.299c-9.521,-8.822 -30.566,-8.129 -37.391,1.234c-4.189,5.746 -3.569,13.739 6.188,17.614c9.178,3.645 27.594,6.117 31.771,-2.115" style="fill:none;stroke:#795041;stroke-width:8.69px;"/><path d="M460.272,719.495c4.956,-5.531 9.541,-14.491 3.273,-20.299c-9.52,-8.822 -30.566,-8.129 -37.39,1.234c-4.189,5.746 -3.569,13.739 6.188,17.614c9.178,3.645 27.594,6.118 31.77,-2.115" style="fill:none;stroke:#795041;stroke-width:8.69px;"/><path d="M354.696,464.147c4.956,-5.531 9.542,-14.491 3.274,-20.299c-9.521,-8.822 -30.566,-8.129 -37.391,1.234c-4.189,5.746 -3.569,13.739 6.188,17.614c9.178,3.645 27.594,6.117 31.771,-2.115" style="fill:none;stroke:#795041;stroke-width:8.69px;"/><path d="M49.501,428.705c7.304,-4.503 13.886,-11.381 11.98,-16.927c-1.617,-4.705 -20.533,-4.448 -26.875,-1.51c-3.815,1.767 -5.39,4.526 -6.344,7.012c-2.029,5.288 -1.699,10.825 5.133,13.458c8.247,3.179 19.865,1.435 21.225,-6.302" style="fill:none;stroke:#795041;stroke-width:8.69px;"/><path d="M66.132,316.493c13.645,0.606 28.924,-0.11 38.74,-6.326c14.227,-9.01 9.38,-21.682 -12.368,-23.24c-17.018,-1.218 -31.321,2.294 -36.05,12.151c-2.249,4.688 -4.158,16.108 7.432,17.598" style="fill:none;stroke:#795041;stroke-width:8.69px;"/><path d="M561.595,559.417c12.385,5.758 26.785,10.916 38.229,8.908c16.586,-2.911 16.932,-16.475 -2.583,-26.199c-15.27,-7.609 -29.833,-9.81 -37.96,-2.498c-3.866,3.478 -9.981,13.309 0.168,19.102" style="fill:none;stroke:#795041;stroke-width:8.69px;"/><path d="M89.327,205.417c13.777,-2.555 32.426,-5.133 39.869,-13.126c12.588,-13.517 -13.643,-22.074 -34.51,-18.113c-15.945,3.026 -23.511,10.926 -23.538,20.274c-0.019,6.548 8.576,14.066 21.481,10.853" style="fill:none;stroke:#795041;stroke-width:8.69px;"/><path d="M625.353,465.551c13.712,2.885 31.937,7.606 41.864,3.051c16.787,-7.703 -4.207,-25.607 -25.009,-29.894c-15.895,-3.276 -25.9,1.147 -29.486,9.78c-2.511,6.047 2.571,16.272 15.727,18.217" style="fill:none;stroke:#795041;stroke-width:8.69px;"/><path d="M337.014,179.197c11.075,-5.125 21.184,-13 17.791,-21.575c-3.266,-8.252 -31.681,-13.337 -43.383,-8.683c-23.456,9.331 -18.601,28.413 11.562,30.145c4.4,0.252 9.902,0.734 14.1,-0.37" style="fill:none;stroke:#795041;stroke-width:8.69px;"/><path d="M230.053,689.91c5.367,-10.96 8.252,-23.446 0.211,-27.964c-7.736,-4.347 -33.001,9.616 -39.151,20.606c-12.328,22.028 3.469,33.782 27.977,16.113c3.575,-2.577 8.15,-5.671 10.713,-9.174" style="fill:none;stroke:#795041;stroke-width:8.69px;"/><path d="M169.031,444.785c9.656,-7.463 17.757,-17.392 12.539,-24.996c-5.022,-7.317 -33.855,-5.946 -44.227,1.198c-20.789,14.32 -11.806,31.842 17.986,26.812c4.345,-0.734 9.817,-1.49 13.664,-3.501" style="fill:none;stroke:#795041;stroke-width:8.69px;"/><path d="M651.8,154.884c2.037,-7.537 2.943,-18.802 -6.259,-25.07c-14.055,-9.574 -38.197,-4.936 -42.233,6.6c-6.16,17.605 41.753,30.496 50.119,12.087" style="fill:none;stroke:#795041;stroke-width:8.69px;"/><path d="M67.341,718.276c2.615,7.357 8.283,17.134 19.416,17.05c17.006,-0.13 34.215,-17.685 30.967,-29.467c-4.957,-17.981 -51.688,-1.306 -48.087,18.592" style="fill:none;stroke:#795041;stroke-width:8.69px;"/><path d="M596.956,680.88c2.037,-7.537 2.942,-18.802 -6.259,-25.07c-14.055,-9.574 -38.197,-4.936 -42.233,6.6c-6.16,17.605 41.752,30.496 50.118,12.087" style="fill:none;stroke:#795041;stroke-width:8.69px;"/><path d="M725.442,576.739c2.038,-7.537 2.943,-18.802 -6.259,-25.07c-14.055,-9.574 -38.197,-4.936 -42.233,6.6c-6.16,17.605 41.753,30.496 50.119,12.087" style="fill:none;stroke:#795041;stroke-width:8.69px;"/><path d="M438.077,121.99c8.398,-1.138 19.847,-3.367 24.923,-7.718c12.307,-10.552 -16.858,-14.31 -29.233,-12.874c-30.391,3.526 -18.863,23.016 8.475,21.937" style="fill:none;stroke:#795041;stroke-width:8.69px;"/><path d="M383.232,647.987c8.399,-1.139 19.848,-3.368 24.924,-7.719c12.307,-10.552 -16.858,-14.31 -29.233,-12.874c-30.391,3.526 -18.863,23.016 8.475,21.937" style="fill:none;stroke:#795041;stroke-width:8.69px;"/><path d="M335.357,118.653c6.075,-4.512 13.503,-9.916 10.229,-15.959c-4.626,-8.54 -37.836,-14.26 -49.649,-8.564c-26.891,12.964 21.645,30.534 41.919,25.398" style="fill:none;stroke:#795041;stroke-width:8.69px;"/><path d="M190.604,643.953c1.871,-7.333 4.232,-16.21 -2.118,-18.838c-8.975,-3.713 -38.363,12.78 -43.943,24.647c-12.704,27.015 36.051,10.061 48.552,-6.706" style="fill:none;stroke:#795041;stroke-width:8.69px;"/><path d="M136.545,128.188c11.677,0.518 24.551,0.157 34.628,-3.659c14.727,-5.578 18.366,-18.366 4.204,-25.386c-11.54,-5.72 -29.367,-6.002 -43.804,-5.841c-7.244,0.081 -16.97,0.231 -23.128,2.702c-21.349,8.565 -14.587,25.051 5.597,32.004c8.601,2.963 18.891,2.212 28.348,1.685" style="fill:none;stroke:#795041;stroke-width:8.69px;"/><path d="M612.037,87.19c10.525,-2.423 36.221,-6.018 39.478,-14.052c1.832,-4.517 -7.23,-7.619 -13.071,-9.275c-13.989,-3.966 -35.872,-8.175 -51.56,-5.723c-14.066,2.198 -15.609,13.561 -9.959,19.647c6.082,6.551 22.672,10.314 35.118,10.072" style="fill:none;stroke:#795041;stroke-width:8.69px;"/><path d="M138.567,751.299c-7.275,7.983 -26.355,25.566 -24.459,34.025c1.065,4.756 10.281,2.148 16.026,0.185c13.76,-4.702 34.147,-13.698 45.65,-24.644c10.313,-9.814 5.113,-20.035 -2.997,-21.822c-8.729,-1.924 -24.511,4.426 -34.606,11.709" style="fill:none;stroke:#795041;stroke-width:8.69px;"/><path d="M209.442,60.493c6.855,-1.251 17.182,-3.211 19.67,-7.522c5.064,-8.775 -23.314,-14.469 -34.026,-12.879c-13.679,2.03 -15.223,13.352 -5.019,17.792c12.128,5.277 24.961,3.065 38.578,1.691" style="fill:none;stroke:#795041;stroke-width:8.69px;"/><path d="M433.106,66.214c12.078,-1.638 36.933,-10.193 20.531,-18.508c-10.272,-5.208 -33.064,-7.458 -46.263,-6.394c-17.572,1.417 -19.861,13.431 -9.002,20.132c9.122,5.629 29.727,6.41 42.204,6.028" style="fill:none;stroke:#795041;stroke-width:8.69px;"/><path d="M734.754,211.661c10.531,-11.753 -20.869,-23.388 -34.141,-13.607c-15.741,11.6 16.625,23.726 33.005,15.152" style="fill:none;stroke:#795041;stroke-width:8.69px;"/><path d="M679.909,737.657c10.532,-11.753 -20.869,-23.387 -34.14,-13.607c-15.741,11.6 16.625,23.726 33.005,15.152" style="fill:none;stroke:#795041;stroke-width:8.69px;"/><path d="M156.403,595.345c10.531,-11.754 -20.869,-23.388 -34.141,-13.607c-15.741,11.6 16.625,23.726 33.005,15.152" style="fill:none;stroke:#795041;stroke-width:8.69px;"/><path d="M658.46,620.147c10.531,-11.754 -20.869,-23.388 -34.141,-13.607c-15.741,11.6 16.625,23.726 33.005,15.152" style="fill:none;stroke:#795041;stroke-width:8.69px;"/><path d="M574.334,482.309c10.531,-11.753 -20.869,-23.388 -34.141,-13.607c-15.741,11.6 16.625,23.726 33.005,15.152" style="fill:none;stroke:#795041;stroke-width:8.69px;"/><path d="M697.839,432.235c6.511,-2.215 16.279,-5.556 18.064,-10.218c2.551,-6.664 -18.755,-10.25 -26.695,-8.918c-23.852,3.999 -9.42,18.54 12.807,19.612" style="fill:none;stroke:#795041;stroke-width:8.69px;"/><path d="M506.482,447.013c6.862,-2.559 18.757,-6.328 19.861,-11.523c2.097,-9.871 -29.522,-12.672 -40.813,-9.175c-23.645,7.323 -2.264,27.798 24.276,21.091" style="fill:none;stroke:#795041;stroke-width:8.69px;"/><path d="M508.011,279.361c14.528,-10.06 2.349,-28.7 -8.718,-26.2c-22.175,5.009 -15.226,25.592 7.382,26.943" style="fill:none;stroke:#795041;stroke-width:8.69px;"/><path d="M347.591,550.009c14.528,-10.06 2.349,-28.7 -8.718,-26.2c-22.175,5.009 -15.226,25.592 7.382,26.943" style="fill:none;stroke:#795041;stroke-width:8.69px;"/><path d="M593.813,400.873c2.358,-4.735 9.005,-8.978 5.714,-14.135c-6.49,-10.167 -28.248,-4.315 -33.386,3.13c-7.423,10.756 14.043,18.261 29.058,11.267" style="fill:none;stroke:#795041;stroke-width:8.69px;"/><path d="M650.143,340.329c7.895,-4.006 18.332,-12.206 13.036,-18.58c-5.413,-6.515 -31.318,-11.532 -40.764,-5.943c-6.921,4.095 -12.062,15.369 -5.401,20.351c8.177,6.116 31.167,8.721 39.812,1.691" style="fill:none;stroke:#795041;stroke-width:8.69px;"/><path d="M367.664,337.946c4.357,-4.243 8.71,-10.587 5.631,-15.549c-4.712,-7.595 -25.289,-9.765 -34.431,-3.868c-3.457,2.23 -5.864,4.868 -7.292,7.738c-1.616,3.248 -2.9,7.091 -0.29,10.275c9.855,12.019 48.158,8.363 42.014,-6.381" style="fill:none;stroke:#795041;stroke-width:8.69px;"/><path d="M234.268,592.72c3.303,-5.107 6.134,-12.261 2.027,-16.413c-6.285,-6.355 -26.829,-3.887 -34.428,3.898c-2.874,2.943 -4.633,6.051 -5.386,9.167c-0.852,3.526 -1.247,7.559 2.007,10.081c12.284,9.523 48.81,-2.572 39.537,-15.578" style="fill:none;stroke:#795041;stroke-width:8.69px;"/><path d="M251.106,253.477c4.421,-8.02 -2.103,-14.987 -9.039,-21.767" style="fill:none;stroke:#906e63;stroke-width:8.69px;"/><path d="M101.825,536.332c2.524,-8.803 -5.388,-14.143 -13.66,-19.207" style="fill:none;stroke:#906e63;stroke-width:8.69px;"/><path d="M227.082,250.14c-11.994,-6.859 -17.275,-12.853 -8.782,-22.114" style="fill:none;stroke:#906e63;stroke-width:8.69px;"/><path d="M77.662,538.43c-13.221,-4.016 -19.705,-8.683 -13.487,-19.603" style="fill:none;stroke:#906e63;stroke-width:8.69px;"/><path d="M401.872,248.71c10.966,-9.741 -14.684,-15.122 -27.502,-11.551" style="fill:none;stroke:#906e63;stroke-width:8.69px;"/><path d="M324.22,702.992c2.374,-14.475 -20.931,-2.484 -28.631,8.368" style="fill:none;stroke:#906e63;stroke-width:8.69px;"/><path d="M347.027,774.706c10.967,-9.741 -14.683,-15.122 -27.501,-11.551" style="fill:none;stroke:#906e63;stroke-width:8.69px;"/><path d="M247.742,498.106c8.522,-11.938 -17.682,-11.471 -29.384,-5.135" style="fill:none;stroke:#906e63;stroke-width:8.69px;"/><path d="M391.103,399.831c6.847,-7.643 -17.06,-9.325 -23.661,-11.479" style="fill:none;stroke:#906e63;stroke-width:8.69px;"/><path d="M184.23,355.29c-5.91,-2.474 -5.195,-4.161 -0.208,-8.303" style="fill:none;stroke:#906e63;stroke-width:8.69px;"/><path d="M501.278,439.876c0.585,-1.849 -1.765,-3.234 -4.436,-4.034" style="fill:none;stroke:#906e63;stroke-width:8.69px;"/><path d="M83.772,304.963c-15.71,-3.793 0.448,-9.118 9.952,-8.856" style="fill:none;stroke:#906e63;stroke-width:8.69px;"/><path d="M582.297,555.476c-13.08,-9.492 3.888,-8.261 12.575,-4.397" style="fill:none;stroke:#906e63;stroke-width:8.69px;"/><path d="M109.452,192.933c-8.339,2.014 -25.375,0.233 -17.436,-6.977c3.737,-3.394 11.821,-4.27 18.266,-4.346" style="fill:none;stroke:#906e63;stroke-width:8.69px;"/><path d="M648.716,461.675c-8.476,-1.315 -23.55,-9.452 -13.463,-13.093c4.748,-1.715 12.556,0.555 18.545,2.939" style="fill:none;stroke:#906e63;stroke-width:8.69px;"/><path d="M107.795,106.647c9.622,9.651 32.159,13.439 50.605,12.137" style="fill:none;stroke:#906e63;stroke-width:8.69px;"/><path d="M116.907,101.879c14.709,-0.653 30.493,0.628 43.518,4.83" style="fill:none;stroke:#906e63;stroke-width:8.69px;"/><path d="M583.288,395.54c-0.499,-0.825 -0.307,-1.627 -0.052,-2.468" style="fill:none;stroke:#906e63;stroke-width:8.69px;"/><path d="M698.433,423.667c0.512,-1.249 1.192,-2.599 0.815,-3.892" style="fill:none;stroke:#906e63;stroke-width:8.69px;"/><path d="M516.189,338.334c2.138,-7.913 -7.205,-11.265 -16.97,-15.584" style="fill:none;stroke:#906e63;stroke-width:8.69px;"/><path d="M355.769,608.982c2.138,-7.913 -7.205,-11.265 -16.97,-15.584" style="fill:none;stroke:#906e63;stroke-width:8.69px;"/><path d="M356.31,335.473c-6.478,-1.356 -9.65,-5.664 -7.407,-9.375" style="fill:none;stroke:#906e63;stroke-width:8.69px;"/><path d="M222.649,592.838c-6.618,0.121 -10.669,-3.373 -9.309,-7.49" style="fill:none;stroke:#906e63;stroke-width:8.69px;"/><path d="M640.446,335.473c6.127,-2.731 5.948,-7.205 1.378,-10.375" style="fill:none;stroke:#906e63;stroke-width:8.69px;"/><path d="M642.103,238.222c-1.621,5.997 -20.876,12.589 -26.807,5.05c-2.192,-2.788 1.662,-6.486 3.109,-9.128" style="fill:none;stroke:#906e63;stroke-width:8.69px;"/><path d="M587.259,764.218c-1.621,5.997 -20.877,12.589 -26.807,5.05c-2.193,-2.788 1.662,-6.486 3.109,-9.128" style="fill:none;stroke:#906e63;stroke-width:8.69px;"/><path d="M63.752,621.906c-1.621,5.996 -20.876,12.588 -26.807,5.049c-2.192,-2.787 1.662,-6.486 3.109,-9.128" style="fill:none;stroke:#906e63;stroke-width:8.69px;"/><path d="M715.746,660.077c-1.621,5.997 -20.877,12.589 -26.807,5.05c-2.193,-2.788 1.662,-6.486 3.109,-9.128" style="fill:none;stroke:#906e63;stroke-width:8.69px;"/><path d="M461.274,552.072c-1.621,5.997 -20.876,12.589 -26.807,5.05c-2.192,-2.788 1.662,-6.486 3.109,-9.128" style="fill:none;stroke:#906e63;stroke-width:8.69px;"/><path d="M332.287,171.958c15.268,-5.193 2.162,-16.81 -11.642,-17.571" style="fill:none;stroke:#906e63;stroke-width:8.69px;"/><path d="M221.82,687.269c8.579,-13.655 -8.917,-14.412 -20.113,-6.301" style="fill:none;stroke:#906e63;stroke-width:8.69px;"/><path d="M162.811,438.78c13.727,-8.463 -1.637,-16.869 -15.263,-14.536" style="fill:none;stroke:#906e63;stroke-width:8.69px;"/><path d="M328.145,101.403c5.539,8.763 -17.934,9.673 -25.424,4.06" style="fill:none;stroke:#906e63;stroke-width:8.69px;"/><path d="M174.131,635.106c9.824,3.313 -7.825,18.815 -17.178,19.179" style="fill:none;stroke:#906e63;stroke-width:8.69px;"/><path d="M439.977,113.797c10.564,-1.742 0.631,-6.766 -6.125,-5.744" style="fill:none;stroke:#906e63;stroke-width:8.69px;"/><path d="M385.133,639.794c10.563,-1.743 0.631,-6.767 -6.125,-5.745" style="fill:none;stroke:#906e63;stroke-width:8.69px;"/><path d="M505.42,176.725c2.941,5.334 -5.549,10.612 -12.631,5.797" style="fill:none;stroke:#906e63;stroke-width:8.69px;"/><path d="M450.575,702.721c2.941,5.334 -5.549,10.612 -12.631,5.797" style="fill:none;stroke:#906e63;stroke-width:8.69px;"/><path d="M345,447.373c2.941,5.334 -5.549,10.612 -12.631,5.797" style="fill:none;stroke:#906e63;stroke-width:8.69px;"/><path d="M639.618,150.505c5.049,-9.159 -4.362,-16.917 -21.594,-15.861" style="fill:none;stroke:#906e63;stroke-width:8.69px;"/><path d="M79.849,714.943c1.062,10.404 13.216,11.425 26.783,0.748" style="fill:none;stroke:#906e63;stroke-width:8.69px;"/><path d="M584.774,676.501c5.049,-9.159 -4.362,-16.917 -21.594,-15.861" style="fill:none;stroke:#906e63;stroke-width:8.69px;"/><path d="M713.26,572.36c5.05,-9.159 -4.361,-16.917 -21.593,-15.861" style="fill:none;stroke:#906e63;stroke-width:8.69px;"/><path d="M613.938,66.125c15.82,2.146 16.637,8.657 0.596,10.689" style="fill:none;stroke:#906e63;stroke-width:8.69px;"/><path d="M148.995,769.7c-14.228,7.241 -18.607,2.352 -6.575,-8.449" style="fill:none;stroke:#906e63;stroke-width:8.69px;"/><path d="M598.199,78.52c-3.422,-4.693 -6.902,-9.217 -2.295,-14.053" style="fill:none;stroke:#906e63;stroke-width:8.69px;"/><path d="M154.88,750.55c5.484,1.911 10.921,3.649 9.885,10.248" style="fill:none;stroke:#906e63;stroke-width:8.69px;"/><path d="M422.581,58.974c7.219,0.321 9.649,-1.428 14.423,-4.109" style="fill:none;stroke:#906e63;stroke-width:8.69px;"/><path d="M207.201,49.44c-1.822,0.68 -3.005,0.384 -4.847,-0.284" style="fill:none;stroke:#906e63;stroke-width:8.69px;"/><path d="M409.327,54.207c-1.605,-3.92 4.81,-5.134 10.789,-5.355" style="fill:none;stroke:#906e63;stroke-width:8.69px;"/></svg>