<?xml version="1.0" encoding="UTF-8" standalone="no"?><!DOCTYPE svg PUBLIC "-//W3C//DTD SVG 1.1//EN" "http://www.w3.org/Graphics/SVG/1.1/DTD/svg11.dtd"><svg width="100%" height="100%" viewBox="0 0 800 800" version="1.1" xmlns="http://www.w3.org/2000/svg" xmlns:xlink="http://www.w3.org/1999/xlink" xml:space="preserve" xmlns:serif="http://www.serif.com/" style="fill-rule:evenodd;clip-rule:evenodd;stroke-linecap:round;stroke-linejoin:round;stroke-miterlimit:1.5;"><g><path d="M230.155,81.054c-6.753,6.075 -14.191,12.581 -18.323,20.808c-7.134,14.205 -13.758,61.111 3.213,70.94c15.309,8.865 22.23,-45.613 22,-52.367c-0.396,-11.699 -2.658,-24.173 -4.498,-35.758" style="fill:#5c4e4b;"/><path d="M424.564,153.481c-9.358,1.993 -44.871,12.366 -46.437,23.517c-2.005,14.269 38.18,15.528 46.59,14.218c10.038,-1.564 51.785,-12.812 48.932,-27.711c-3.63,-18.956 -39.457,-11.435 -51.783,-9.658" style="fill:#5c4e4b;"/><path d="M573.229,175.082c-8.42,15.848 -13.52,44.226 -8.108,61.609c4.441,14.265 22.914,24.566 32.031,8.646c8.15,-14.232 11.703,-82.398 -3.156,-93.724c-6.01,-4.582 -20.923,26.6 -22.157,31.547" style="fill:#5c4e4b;"/><path d="M245.402,266.569c15.358,-7.92 33.957,-12.87 51.106,-9.263c14.968,3.147 25.127,16.495 7.89,25.864c-12.782,6.948 -65.842,13.025 -79.183,6.942c-22.656,-10.33 21.969,-21.73 26.896,-22.813" style="fill:#5c4e4b;"/><path d="M690.129,305.959c-18.236,14.664 -41.377,36.063 -43.271,61.038c-1.547,20.404 27.958,38.435 44.872,25.377c19.181,-14.808 26.816,-47.026 28.799,-69.958c0.651,-7.529 -2.5,-26.331 -12.774,-26.94c-10.579,-0.628 -24.669,15.373 -32.957,20.989" style="fill:#5c4e4b;"/><path d="M452.518,297.064c-12.914,12.832 -26.338,34.399 -26.507,53.436c-0.155,17.492 22.634,11.422 29.948,3.33c11.596,-12.829 24.103,-33.886 23.597,-51.687c-0.727,-25.621 -27.429,-15.703 -36.599,-1.397" style="fill:#5c4e4b;"/><path d="M119.608,316.124c7.134,19.615 16.629,35.443 14.224,57.255c-2.036,18.469 -18.819,26.705 -27.246,6.302c-4.832,-11.699 -12.114,-64.042 -7.976,-75.666c6.018,-16.906 26.226,14.687 27.785,18.387" style="fill:#5c4e4b;"/><path d="M317.829,389.821c-13.099,24.656 -59.274,44.091 -64.444,71.738c-1.583,8.46 15.361,9.888 19.973,9.819c16.974,-0.252 44.629,-4.441 54.156,-20.356c7.964,-13.303 13.355,-41.946 10.89,-57.464c-1.702,-10.709 -19.797,-11.709 -26.177,-5.488" style="fill:#5c4e4b;"/><path d="M452.518,435.565c-9.002,8.944 -19.457,16.165 -28.948,24.545c-6.977,6.16 -27.949,24.556 -25.06,35.511c5.46,20.708 52.998,4.948 64.777,-1.907c45.285,-26.353 32.915,-64.747 -18.674,-54.708" style="fill:#5c4e4b;"/><path d="M625.326,459.707c-10.135,17.666 -26.162,35.161 -28.307,56.066c-0.275,2.682 -0.653,24.199 2.105,25.161c8.687,3.029 38.873,-24.333 43.337,-31.573c6.128,-9.94 14.873,-27.635 13.577,-39.561c-1.207,-11.107 -20.748,-16.554 -28.754,-10.446" style="fill:#5c4e4b;"/><path d="M150.104,514.345c-11.198,18.947 -24.267,45.296 -19.482,67.635c5.633,26.295 32.929,38.891 48.333,12.691c12.536,-21.323 9.944,-44.476 0.865,-66.134c-9.747,-23.253 -26.694,-40.872 -35.96,-6.055" style="fill:#5c4e4b;"/><path d="M338.16,551.194c-5.76,19.493 -11.525,44.974 -6.949,65.129c5.06,22.29 21.093,25.255 29.452,2.478c8.717,-23.757 2.924,-116.729 -29.059,-59.326" style="fill:#5c4e4b;"/><path d="M526.215,594.396c-14.876,22.96 -21.701,52.175 -16.606,79.008c5.683,29.933 39.917,0.887 46.916,-11.274c13.556,-23.553 11.681,-53.781 3.434,-78.584c-7.072,-21.27 -28.177,-12.914 -34.574,4.261c-2.375,6.377 -3.551,13.269 -5.334,19.829" style="fill:#5c4e4b;"/><path d="M348.325,710.025c-12.42,-0 -24.477,-2.854 -36.87,-3.008c-14.041,-0.175 -70.156,11.007 -37.578,27.603c20.512,10.45 46.975,8.09 69.38,9.04c27.528,1.168 21.766,-26.894 2.345,-36.036" style="fill:#5c4e4b;"/><path d="M678.693,640.139c-31.306,0.104 -80.109,57.56 -30.495,55.839c24.608,-0.853 104.569,-49.381 39.289,-56.63c-5.925,-0.658 -11.793,-0.923 -17.738,-0.441" style="fill:#5c4e4b;"/><path d="M101.819,665.552c-16.829,20.929 -11.69,54.752 13.781,65.534c5.113,2.165 24.652,9.743 29.653,5.87c7.418,-5.746 0.319,-23.646 -1.783,-30.249c-8.721,-27.396 -1.588,-44.084 -39.17,-47.428" style="fill:#5c4e4b;"/><path d="M663.445,89.949c-3.894,10.708 -7.583,21.126 -10.261,32.225c-1.77,7.334 -2.401,14.924 -2.824,22.439c-0.385,6.834 -0.853,13.609 -1.631,20.411c-0.074,0.648 -0.85,7.729 -0.653,7.751c19.115,2.129 38.682,-54.383 40.226,-67.689c2.409,-20.76 -10.882,-28.845 -25.721,-13.419" style="fill:#5c4e4b;"/><path d="M474.119,63.265c-0,20.337 7.836,40.54 21.8,55.805c17.998,19.674 32.382,1.836 32.625,-18.958c0.196,-16.725 -8.949,-39.647 -22.306,-50.049c-25.529,-19.88 -39.845,-7.063 -31.262,22.694" style="fill:#5c4e4b;"/><path d="M134.856,168.729c-10.702,-13.309 -24.172,-32.112 -41.449,-37.092c-24.54,-7.074 -26.104,17.482 -14.614,32.443c11.755,15.306 46.56,23.463 65.026,24.806c1.75,0.127 -2.583,-13.045 -2.894,-13.793c-1.544,-3.716 -3.764,-6.923 -6.366,-9.988" style="fill:#5c4e4b;"/><path d="M355.949,60.724c-11.88,9.203 -42.74,55.393 -38.324,70.065c1.451,4.821 28.283,-4.019 33.078,-7.251c13.98,-9.425 22.999,-32.509 23.337,-48.868c0.124,-6.001 -7.862,-21.466 -15.698,-17.827" style="fill:#5c4e4b;"/></g><g><path d="M230.155,81.054c-6.753,6.075 -14.191,12.581 -18.323,20.808c-7.134,14.205 -13.758,61.111 3.213,70.94c15.309,8.865 22.23,-45.613 22,-52.367c-0.396,-11.699 -2.658,-24.173 -4.498,-35.758" style="fill:none;stroke:#906e63;stroke-width:8.69px;"/><path d="M424.564,153.481c-9.358,1.993 -44.871,12.366 -46.437,23.517c-2.005,14.269 38.18,15.528 46.59,14.218c10.038,-1.564 51.785,-12.812 48.932,-27.711c-3.63,-18.956 -39.457,-11.435 -51.783,-9.658" style="fill:none;stroke:#906e63;stroke-width:8.69px;"/><path d="M573.229,175.082c-8.42,15.848 -13.52,44.226 -8.108,61.609c4.441,14.265 22.914,24.566 32.031,8.646c8.15,-14.232 11.703,-82.398 -3.156,-93.724c-6.01,-4.582 -20.923,26.6 -22.157,31.547" style="fill:none;stroke:#906e63;stroke-width:8.69px;"/><path d="M245.402,266.569c15.358,-7.92 33.957,-12.87 51.106,-9.263c14.968,3.147 25.127,16.495 7.89,25.864c-12.782,6.948 -65.842,13.025 -79.183,6.942c-22.656,-10.33 21.969,-21.73 26.896,-22.813" style="fill:none;stroke:#906e63;stroke-width:8.69px;"/><path d="M690.129,305.959c-18.236,14.664 -41.377,36.063 -43.271,61.038c-1.547,20.404 27.958,38.435 44.872,25.377c19.181,-14.808 26.816,-47.026 28.799,-69.958c0.651,-7.529 -2.5,-26.331 -12.774,-26.94c-10.579,-0.628 -24.669,15.373 -32.957,20.989" style="fill:none;stroke:#906e63;stroke-width:8.69px;"/><path d="M452.518,297.064c-12.914,12.832 -26.338,34.399 -26.507,53.436c-0.155,17.492 22.634,11.422 29.948,3.33c11.596,-12.829 24.103,-33.886 23.597,-51.687c-0.727,-25.621 -27.429,-15.703 -36.599,-1.397" style="fill:none;stroke:#906e63;stroke-width:8.69px;"/><path d="M119.608,316.124c7.134,19.615 16.629,35.443 14.224,57.255c-2.036,18.469 -18.819,26.705 -27.246,6.302c-4.832,-11.699 -12.114,-64.042 -7.976,-75.666c6.018,-16.906 26.226,14.687 27.785,18.387" style="fill:none;stroke:#906e63;stroke-width:8.69px;"/><path d="M317.829,389.821c-13.099,24.656 -59.274,44.091 -64.444,71.738c-1.583,8.46 15.361,9.888 19.973,9.819c16.974,-0.252 44.629,-4.441 54.156,-20.356c7.964,-13.303 13.355,-41.946 10.89,-57.464c-1.702,-10.709 -19.797,-11.709 -26.177,-5.488" style="fill:none;stroke:#906e63;stroke-width:8.69px;"/><path d="M452.518,435.565c-9.002,8.944 -19.457,16.165 -28.948,24.545c-6.977,6.16 -27.949,24.556 -25.06,35.511c5.46,20.708 52.998,4.948 64.777,-1.907c45.285,-26.353 32.915,-64.747 -18.674,-54.708" style="fill:none;stroke:#906e63;stroke-width:8.69px;"/><path d="M625.326,459.707c-10.135,17.666 -26.162,35.161 -28.307,56.066c-0.275,2.682 -0.653,24.199 2.105,25.161c8.687,3.029 38.873,-24.333 43.337,-31.573c6.128,-9.94 14.873,-27.635 13.577,-39.561c-1.207,-11.107 -20.748,-16.554 -28.754,-10.446" style="fill:none;stroke:#906e63;stroke-width:8.69px;"/><path d="M150.104,514.345c-11.198,18.947 -24.267,45.296 -19.482,67.635c5.633,26.295 32.929,38.891 48.333,12.691c12.536,-21.323 9.944,-44.476 0.865,-66.134c-9.747,-23.253 -26.694,-40.872 -35.96,-6.055" style="fill:none;stroke:#906e63;stroke-width:8.69px;"/><path d="M338.16,551.194c-5.76,19.493 -11.525,44.974 -6.949,65.129c5.06,22.29 21.093,25.255 29.452,2.478c8.717,-23.757 2.924,-116.729 -29.059,-59.326" style="fill:none;stroke:#906e63;stroke-width:8.69px;"/><path d="M526.215,594.396c-14.876,22.96 -21.701,52.175 -16.606,79.008c5.683,29.933 39.917,0.887 46.916,-11.274c13.556,-23.553 11.681,-53.781 3.434,-78.584c-7.072,-21.27 -28.177,-12.914 -34.574,4.261c-2.375,6.377 -3.551,13.269 -5.334,19.829" style="fill:none;stroke:#906e63;stroke-width:8.69px;"/><path d="M348.325,710.025c-12.42,-0 -24.477,-2.854 -36.87,-3.008c-14.041,-0.175 -70.156,11.007 -37.578,27.603c20.512,10.45 46.975,8.09 69.38,9.04c27.528,1.168 21.766,-26.894 2.345,-36.036" style="fill:none;stroke:#906e63;stroke-width:8.69px;"/><path d="M678.693,640.139c-31.306,0.104 -80.109,57.56 -30.495,55.839c24.608,-0.853 104.569,-49.381 39.289,-56.63c-5.925,-0.658 -11.793,-0.923 -17.738,-0.441" style="fill:none;stroke:#906e63;stroke-width:8.69px;"/><path d="M101.819,665.552c-16.829,20.929 -11.69,54.752 13.781,65.534c5.113,2.165 24.652,9.743 29.653,5.87c7.418,-5.746 0.319,-23.646 -1.783,-30.249c-8.721,-27.396 -1.588,-44.084 -39.17,-47.428" style="fill:none;stroke:#906e63;stroke-width:8.69px;"/><path d="M663.445,89.949c-3.894,10.708 -7.583,21.126 -10.261,32.225c-1.77,7.334 -2.401,14.924 -2.824,22.439c-0.385,6.834 -0.853,13.609 -1.631,20.411c-0.074,0.648 -0.85,7.729 -0.653,7.751c19.115,2.129 38.682,-54.383 40.226,-67.689c2.409,-20.76 -10.882,-28.845 -25.721,-13.419" style="fill:none;stroke:#906e63;stroke-width:8.69px;"/><path d="M474.119,63.265c-0,20.337 7.836,40.54 21.8,55.805c17.998,19.674 32.382,1.836 32.625,-18.958c0.196,-16.725 -8.949,-39.647 -22.306,-50.049c-25.529,-19.88 -39.845,-7.063 -31.262,22.694" style="fill:none;stroke:#906e63;stroke-width:8.69px;"/><path d="M134.856,168.729c-10.702,-13.309 -24.172,-32.112 -41.449,-37.092c-24.54,-7.074 -26.104,17.482 -14.614,32.443c11.755,15.306 46.56,23.463 65.026,24.806c1.75,0.127 -2.583,-13.045 -2.894,-13.793c-1.544,-3.716 -3.764,-6.923 -6.366,-9.988" style="fill:none;stroke:#906e63;stroke-width:8.69px;"/><path d="M355.949,60.724c-11.88,9.203 -42.74,55.393 -38.324,70.065c1.451,4.821 28.283,-4.019 33.078,-7.251c13.98,-9.425 22.999,-32.509 23.337,-48.868c0.124,-6.001 -7.862,-21.466 -15.698,-17.827" style="fill:none;stroke:#906e63;stroke-width:8.69px;"/></g><path d="M691.018,325.794c-9.994,12.429 -19.662,28.108 -17.333,44.963" style="fill:none;stroke:#b0a576;stroke-width:4.36px;"/><path d="M588.228,185.27c0,14.773 1.831,30.884 -4.104,44.86" style="fill:none;stroke:#b0a576;stroke-width:4.36px;"/><path d="M492.594,63.613c3.88,4.825 8.983,8.818 12.154,14.182c5.001,8.461 5.953,19.832 6.732,29.432" style="fill:none;stroke:#b0a576;stroke-width:4.36px;"/><path d="M359.227,83.781c-6.378,15.202 -10.192,20.737 -24.104,30.116" style="fill:none;stroke:#b0a576;stroke-width:4.36px;"/><path d="M223.908,112.406c-2.589,8.159 -6.813,20.834 -5.28,29.398" style="fill:none;stroke:#b0a576;stroke-width:4.36px;"/><path d="M401.514,176.162c11.558,-4.849 29.039,-9.98 41.658,-9.038" style="fill:none;stroke:#b0a576;stroke-width:4.36px;"/><path d="M321.494,409.067c-3.784,9.017 -10.652,17.953 -18.184,24.148c-6.95,5.716 -14.321,8.559 -19.66,16.274" style="fill:none;stroke:#b0a576;stroke-width:4.36px;"/><path d="M461.086,453.515c-11.401,2.897 -16.338,13.023 -24.123,20.59c-2.967,2.884 -6.468,4.771 -9.945,6.935" style="fill:none;stroke:#b0a576;stroke-width:4.36px;"/><path d="M476.797,456.572c-3.342,5.36 -5.497,11.581 -10.182,16.045c-5.475,5.218 -12.739,7.993 -18.076,13.322" style="fill:none;stroke:#b0a576;stroke-width:4.36px;"/><path d="M640.64,472.035c-4.618,3.108 -9.099,5.976 -12.968,10.079c-8.49,9.003 -13.466,20.52 -16.786,32.254" style="fill:none;stroke:#b0a576;stroke-width:4.36px;"/><path d="M542.481,593.347c-5.066,5.279 -4.39,13.888 -5.8,20.512c-1.601,7.515 -5.562,14.276 -7.177,21.803c-2.03,9.459 -1.482,19.363 -2.579,28.951" style="fill:none;stroke:#b0a576;stroke-width:4.36px;"/><path d="M552.401,608.165c0.258,14.75 1.594,33.205 -7.478,45.892" style="fill:none;stroke:#b0a576;stroke-width:4.36px;"/><path d="M691.41,651.38c-12.921,5.688 -27.554,5.654 -38.147,16.216" style="fill:none;stroke:#b0a576;stroke-width:4.36px;"/><path d="M679.734,669.573c-10.206,6.869 -24.722,14.242 -37.44,13.08" style="fill:none;stroke:#b0a576;stroke-width:4.36px;"/><path d="M349.746,564.063c-1.319,9.582 -1.33,19.345 -1.65,29.016c-0.172,5.216 -1.613,10.448 -1.358,15.68" style="fill:none;stroke:#b0a576;stroke-width:4.36px;"/><path d="M283.965,727.119c15.554,-8.367 36.802,-5.48 53.612,-3.477" style="fill:none;stroke:#b0a576;stroke-width:4.36px;"/><path d="M158.028,535.761c-4.273,6.854 -5.98,14.918 -7.044,22.815c-1.305,9.687 -3.038,20.298 0.356,29.815" style="fill:none;stroke:#b0a576;stroke-width:4.36px;"/><path d="M169.601,549.884c2.79,10.975 -0.204,22.078 -1.291,33.031" style="fill:none;stroke:#b0a576;stroke-width:4.36px;"/><path d="M109.859,677.188c-1.31,1.754 -2.176,3.782 -2.798,5.866c-3.716,12.452 4.519,19.843 9.68,30.059" style="fill:none;stroke:#b0a576;stroke-width:4.36px;"/><path d="M123.659,685.276c2.002,5.22 5.646,9.539 7.56,14.764c2.426,6.623 2.528,15.444 1.866,22.409" style="fill:none;stroke:#b0a576;stroke-width:4.36px;"/><path d="M702.087,341.907c0.656,11.005 -5.364,22.275 -10.585,31.492c-2.316,4.089 -5.471,8.72 -9.259,11.574" style="fill:none;stroke:#b0a576;stroke-width:4.36px;"/><path d="M675.829,99.453c-1.919,4.36 -3.992,8.686 -5.44,13.24c-2.457,7.727 -3.946,15.725 -6.082,23.524" style="fill:none;stroke:#b0a576;stroke-width:4.36px;"/><path d="M101.319,165.573c-5.919,-2.484 -17.717,-8.188 -16.768,-16.267c0.264,-2.252 3.697,-3.458 5.545,-3.312c5.186,0.411 9.248,3.775 13.147,6.886" style="fill:none;stroke:#b0a576;stroke-width:4.36px;"/><path d="M108.814,328.788c5.062,13.918 7.365,27.643 7.462,42.469" style="fill:none;stroke:#b0a576;stroke-width:4.36px;"/><path d="M463.185,310.612c-0.646,4.428 -1.041,9.141 -2.83,13.283c-1.272,2.945 -3.705,5.125 -5.632,7.606c-2.183,2.811 -4.049,5.949 -6.309,8.676" style="fill:none;stroke:#b0a576;stroke-width:4.36px;"/><path d="M300.636,273.306c-13.601,-1.049 -28.327,-4.81 -40.864,2.625" style="fill:none;stroke:#b0a576;stroke-width:4.36px;"/></svg>